<?xml version="1.0" standalone="no"?>
<!DOCTYPE svg PUBLIC "-//W3C//DTD SVG 20010904//EN"
 "http://www.w3.org/TR/2001/REC-SVG-20010904/DTD/svg10.dtd">
<svg version="1.0" xmlns="http://www.w3.org/2000/svg"
 width="260.000000pt" height="260.000000pt" viewBox="0 0 260.000000 260.000000"
 preserveAspectRatio="xMidYMid meet">
<metadata>
Created by potrace 1.11, written by Peter Selinger 2001-2013
</metadata>
<g transform="translate(0.000000,260.000000) scale(0.100000,-0.100000)"
fill="#000000" stroke="none">
<path d="M1306 2418 c3 -5 10 -5 16 -2 7 4 8 2 4 -4 -5 -9 -13 -9 -27 -2 -15
9 -19 7 -19 -5 0 -8 -5 -15 -11 -15 -5 0 -7 5 -3 12 4 7 3 8 -4 4 -6 -4 -8
-14 -5 -22 5 -14 3 -15 -18 -3 -13 7 -26 12 -29 11 -3 -1 -5 2 -5 7 0 5 -4 13
-9 18 -5 4 -6 3 -3 -3 8 -14 -13 -32 -33 -29 -12 2 -14 -6 -12 -36 2 -22 9
-39 15 -39 6 0 7 -3 4 -6 -4 -4 -12 -2 -19 4 -10 8 -13 4 -14 -14 -1 -16 4
-24 15 -25 12 0 12 -2 -4 -9 -11 -5 -14 -9 -7 -9 7 -1 10 -6 7 -11 -4 -6 -10
-8 -14 -6 -10 7 -8 -35 3 -53 6 -9 5 -12 -1 -8 -6 4 -16 0 -23 -8 -7 -8 -9
-15 -5 -15 4 0 2 -6 -4 -14 -8 -10 -9 -16 -2 -21 7 -4 5 -15 -5 -31 -16 -23
-16 -24 2 -17 15 5 13 0 -7 -20 -19 -20 -25 -34 -21 -53 3 -16 1 -25 -5 -21
-6 4 -9 -7 -8 -24 1 -19 -4 -33 -12 -36 -8 -3 -13 -14 -10 -24 3 -9 -3 -31
-13 -47 -10 -17 -16 -33 -12 -37 4 -4 3 -6 -3 -5 -21 5 -27 0 -17 -13 8 -9 5
-19 -10 -37 -11 -14 -16 -18 -12 -10 4 9 3 12 -2 7 -5 -5 -9 -12 -9 -15 0 -4
-4 -13 -9 -21 -7 -11 -6 -12 5 -5 9 5 8 -1 -4 -19 -10 -15 -15 -32 -12 -38 4
-5 1 -8 -7 -7 -7 2 -12 -3 -10 -9 1 -7 -2 -13 -7 -13 -6 0 -8 -9 -6 -21 4 -18
2 -19 -12 -7 -12 9 -15 9 -9 1 4 -8 2 -13 -6 -13 -9 0 -9 -3 2 -10 11 -7 11
-10 2 -10 -7 0 -10 -5 -7 -10 3 -6 -1 -13 -10 -16 -9 -4 -14 -13 -11 -20 3 -8
-2 -14 -12 -15 -11 0 -13 -2 -4 -6 10 -4 9 -9 -5 -19 -13 -10 -14 -13 -3 -11
8 2 5 -1 -7 -7 -12 -5 -25 -16 -28 -24 -5 -13 -3 -13 12 -1 17 13 17 13 0 -7
-9 -11 -14 -24 -10 -29 5 -4 4 -6 -2 -3 -5 3 -23 -13 -39 -36 -16 -22 -22 -35
-14 -28 13 10 18 10 24 1 4 -8 3 -9 -4 -5 -7 4 -12 2 -12 -3 0 -6 -6 -11 -14
-11 -8 0 -18 -5 -22 -12 -4 -7 -3 -8 4 -4 7 4 12 2 12 -4 0 -6 -10 -15 -22
-20 -13 -5 -17 -9 -9 -9 8 -1 3 -10 -13 -22 -14 -11 -24 -25 -21 -30 4 -5 -6
-21 -22 -35 -15 -15 -21 -23 -13 -18 10 6 9 3 -2 -8 -10 -9 -18 -21 -18 -28 0
-6 -5 -8 -12 -4 -9 5 -8 2 1 -9 12 -15 12 -17 -2 -12 -8 4 -18 1 -23 -6 -5 -8
-3 -10 7 -5 8 4 6 1 -3 -7 -10 -8 -15 -17 -11 -20 3 -4 -1 -7 -10 -7 -9 0 -16
-6 -14 -12 1 -7 -4 -12 -11 -10 -8 1 -11 -2 -8 -7 4 -5 2 -12 -4 -16 -6 -4 -8
-11 -5 -16 3 -5 -2 -6 -11 -2 -11 4 -15 2 -11 -4 4 -6 0 -14 -9 -17 -9 -3 -14
-13 -11 -20 4 -10 0 -14 -12 -11 -12 2 -18 -2 -17 -13 0 -10 -5 -16 -13 -14
-8 2 -11 -3 -8 -12 4 -9 3 -15 -1 -13 -4 1 -18 -6 -32 -16 -13 -9 -20 -17 -14
-17 5 0 14 3 20 8 5 4 -3 -6 -18 -21 -17 -18 -32 -26 -40 -21 -10 6 -9 3 1 -9
7 -9 11 -18 7 -18 -3 -1 -10 -3 -16 -4 -5 -1 -14 -3 -20 -4 -5 0 -10 -6 -10
-12 0 -5 5 -7 12 -3 7 4 8 3 4 -4 -4 -6 -13 -9 -21 -5 -11 4 -13 1 -8 -13 5
-14 3 -16 -11 -11 -9 4 -15 3 -12 -2 8 -12 -33 -63 -45 -56 -5 4 -9 -1 -9 -9
0 -9 -5 -16 -11 -16 -5 0 -7 -5 -3 -12 5 -8 2 -9 -9 -5 -9 3 -16 3 -16 -1 3
-20 -2 -33 -11 -27 -6 3 -10 -1 -10 -10 0 -9 -4 -14 -9 -11 -5 4 -7 -4 -4 -16
4 -19 3 -20 -6 -8 -9 13 -15 8 -13 -11 1 -4 -10 -19 -23 -33 -27 -30 -35 -100
-12 -109 9 -4 9 -6 0 -6 -7 -1 -13 -5 -13 -10 0 -5 10 -7 23 -3 l22 5 -20 -23
-20 -23 23 14 c19 12 24 12 31 0 5 -8 16 -11 26 -8 9 4 14 3 10 -3 -4 -6 6 -8
22 -6 15 2 22 1 15 -1 -7 -3 -9 -9 -6 -15 4 -7 2 -8 -4 -4 -11 7 -14 -2 -14
-39 0 -35 2 -41 11 -27 4 7 20 14 34 15 14 1 33 11 42 22 9 11 14 15 11 8 -4
-7 1 -11 14 -10 13 1 19 6 15 15 -2 7 0 10 5 7 18 -11 51 -14 45 -4 -4 5 -10
7 -15 4 -5 -3 -11 -1 -15 4 -6 10 33 6 43 -4 3 -3 12 5 20 17 7 13 11 15 8 5
-3 -9 -3 -17 1 -17 3 0 12 8 19 17 9 12 13 14 14 5 0 -7 5 -10 10 -7 6 4 8 12
4 18 -3 7 2 3 10 -7 14 -17 16 -17 16 -3 0 11 5 14 17 10 12 -5 14 -3 8 8 -8
12 -6 12 8 0 14 -11 20 -11 33 0 9 7 33 12 55 11 33 -2 38 0 33 15 -5 14 -4
15 4 4 11 -15 55 -24 46 -9 -3 4 -1 8 5 8 5 0 13 -5 16 -10 5 -8 11 -7 20 0 8
7 20 8 26 4 9 -5 10 -2 6 9 -4 11 -2 14 8 11 8 -3 11 -13 9 -22 -5 -15 -4 -15
6 1 12 18 36 25 25 6 -4 -6 2 -5 13 2 12 7 18 18 14 24 -4 7 -1 7 9 -1 8 -5
21 -10 29 -9 8 0 18 -4 22 -10 5 -6 8 -2 8 9 0 20 0 20 16 0 12 -14 14 -15 11
-3 -4 13 -1 15 14 12 10 -3 16 -10 12 -17 -3 -6 0 -6 8 2 15 14 33 17 25 4 -3
-5 1 -9 8 -9 8 0 12 6 9 13 -2 6 1 15 8 20 7 4 10 3 5 -4 -7 -11 9 -25 32 -28
7 -2 16 4 19 12 4 10 10 11 23 4 14 -8 20 -6 23 8 4 16 5 16 6 -1 0 -10 6 -15
11 -12 6 4 17 1 25 -5 12 -10 16 -9 21 4 5 13 9 14 20 5 8 -6 11 -16 7 -23 -4
-6 1 -5 10 3 19 15 23 26 5 15 -7 -4 -8 -3 -4 4 11 19 26 14 26 -8 0 -11 4
-20 10 -20 5 0 7 7 4 15 -4 10 0 13 15 10 12 -2 26 -7 33 -11 7 -4 8 -3 4 4
-11 18 5 14 19 -5 9 -13 14 -13 20 -3 6 9 4 11 -5 5 -8 -5 -11 -4 -6 3 8 13
33 6 59 -17 10 -8 18 -11 17 -6 -5 21 1 29 10 15 7 -11 10 -11 10 -2 0 7 5 10
10 7 6 -4 8 -11 5 -16 -4 -5 -1 -9 4 -9 6 0 11 8 11 17 0 13 3 14 11 6 6 -6
18 -9 27 -6 11 5 13 3 7 -8 -7 -11 -5 -11 10 1 10 8 16 10 12 4 -4 -7 0 -14 8
-18 8 -3 17 0 21 6 4 7 3 8 -4 4 -7 -4 -12 -3 -12 3 0 5 9 9 19 8 11 0 17 -5
14 -10 -3 -5 12 -8 34 -6 27 3 39 1 36 -7 -2 -6 3 -11 11 -11 8 0 13 5 12 11
-2 6 -1 8 1 3 3 -4 9 -5 14 -2 5 4 6 0 4 -7 -4 -9 2 -14 14 -14 11 0 18 3 16
6 -2 4 2 7 10 7 8 0 12 -4 9 -9 -3 -4 1 -9 8 -9 18 -2 21 -1 41 6 10 4 17 3
17 -5 0 -6 -5 -8 -12 -4 -7 4 -8 3 -4 -4 4 -7 15 -8 30 -2 12 4 29 4 36 0 8
-5 18 -6 24 -3 5 3 6 1 2 -6 -4 -6 -13 -8 -19 -5 -7 4 -9 3 -4 -1 11 -13 51
-14 59 -1 5 7 8 3 8 -8 0 -15 3 -17 11 -9 9 9 16 9 29 0 14 -8 23 -7 37 3 15
12 16 12 6 0 -18 -20 -16 -35 2 -20 13 11 18 11 28 0 9 -10 9 -11 0 -6 -7 4
-13 3 -13 -3 0 -5 9 -9 19 -8 12 1 17 7 14 17 -2 8 2 5 9 -8 11 -18 16 -20 27
-10 11 11 12 10 6 -1 -6 -10 -2 -11 15 -6 15 5 20 4 16 -4 -5 -7 -1 -9 8 -5
10 4 16 1 16 -7 0 -12 2 -12 9 -1 7 11 9 11 14 -2 5 -12 13 -13 37 -6 17 5 28
5 26 1 -3 -4 -1 -13 5 -21 5 -8 9 -10 9 -5 0 6 11 11 25 11 17 1 25 -3 25 -15
0 -14 2 -14 10 -1 6 10 10 11 10 3 0 -7 7 -13 16 -13 9 0 12 5 8 12 -5 7 -3 8
7 2 8 -4 23 -10 34 -11 16 -2 17 -1 5 6 -8 5 -18 7 -24 4 -5 -3 -6 -1 -3 5 4
5 17 8 28 5 14 -4 25 0 31 11 5 9 13 14 19 11 5 -4 21 3 35 14 15 12 21 21 13
21 -8 0 -10 3 -4 8 16 11 17 42 3 60 -9 11 -10 14 -1 8 9 -5 11 -2 7 8 -3 9
-11 16 -18 16 -6 0 -19 11 -30 24 -10 14 -23 23 -30 20 -15 -6 -59 43 -45 51
5 4 7 10 4 15 -3 5 -1 12 5 15 6 4 10 3 9 -2 -4 -21 2 -32 14 -27 17 6 19 -28
3 -38 -8 -6 -7 -8 1 -8 7 0 17 8 22 17 6 11 11 13 11 5 0 -7 5 -10 12 -6 6 4
8 3 5 -3 -4 -6 4 -10 18 -10 20 -1 22 2 11 13 -7 7 -12 24 -11 38 2 19 -1 23
-13 19 -10 -4 -13 -2 -8 5 10 16 -7 15 -23 0 -10 -11 -12 -10 -9 2 2 8 -3 14
-9 12 -7 -1 -13 7 -13 19 0 14 -5 19 -15 16 -8 -4 -17 -1 -21 5 -4 7 -3 8 4 4
7 -4 12 -2 12 3 0 6 -5 11 -11 11 -5 0 -7 6 -3 13 6 9 4 9 -8 -1 -13 -10 -17
-10 -22 3 -3 10 -11 13 -18 9 -10 -6 -10 -4 0 8 10 13 10 18 1 24 -8 5 -9 3
-4 -7 5 -8 -5 -1 -23 16 -18 16 -32 37 -32 45 0 13 -1 13 -10 0 -8 -13 -10
-12 -10 3 0 9 -4 17 -10 17 -5 0 -10 9 -10 20 0 12 -5 17 -14 14 -8 -3 -17 0
-22 7 -4 8 -3 10 4 5 7 -4 12 -3 12 2 0 5 -10 12 -21 15 -14 4 -20 11 -16 21
3 8 1 18 -5 22 -7 4 -8 3 -4 -4 4 -7 2 -12 -5 -12 -6 0 -9 8 -6 19 3 13 0 18
-8 15 -7 -3 -15 5 -19 20 -3 14 -15 30 -26 36 -11 6 -18 15 -15 21 4 5 2 9 -4
9 -5 0 -13 9 -16 20 -4 11 -11 17 -17 14 -7 -5 -9 -2 -6 8 4 8 -2 20 -13 26
-10 7 -19 20 -19 28 0 9 -8 23 -17 31 -12 10 -13 12 -3 8 9 -4 8 -1 -3 8 -10
8 -19 24 -20 35 -1 15 -5 18 -13 11 -9 -8 -11 -5 -7 12 4 15 3 20 -5 15 -8 -5
-12 2 -12 19 0 17 -4 24 -12 19 -7 -5 -9 -2 -5 9 4 12 2 14 -10 10 -12 -5 -15
-2 -11 14 3 12 -3 30 -14 44 -11 13 -16 18 -12 10 5 -10 3 -12 -5 -7 -9 6 -9
11 1 24 11 13 11 14 -1 7 -11 -6 -13 -3 -9 13 4 16 2 19 -10 15 -11 -5 -14 -2
-9 10 4 12 1 17 -11 18 -10 0 -12 3 -5 6 8 3 5 12 -11 28 -17 17 -23 31 -19
46 4 15 3 20 -5 15 -8 -5 -12 1 -12 14 0 15 -5 20 -14 17 -10 -4 -12 0 -9 14
3 12 0 19 -8 19 -11 0 -11 2 1 10 11 7 11 10 2 10 -8 0 -10 5 -6 12 5 8 2 9
-10 5 -14 -6 -15 -4 -5 14 6 12 7 19 1 15 -5 -3 -13 1 -16 10 -4 10 -2 13 7 9
6 -4 4 0 -6 8 -11 9 -17 25 -15 39 2 16 -2 23 -14 22 -12 -1 -15 5 -12 24 3
14 8 30 11 36 4 6 -2 4 -12 -4 -10 -8 -16 -10 -12 -4 4 7 -3 24 -14 38 -12 15
-17 26 -12 25 22 -4 25 2 7 16 -12 9 -14 14 -6 15 7 0 10 5 7 10 -4 6 -11 7
-17 4 -7 -5 -8 -2 -2 7 12 20 14 38 4 44 -5 3 -12 0 -16 -6 -4 -7 -3 -9 3 -6
5 3 10 0 10 -8 0 -11 -4 -12 -14 -4 -7 6 -10 15 -7 20 13 21 13 51 0 46 -7 -3
-13 1 -13 9 0 7 4 11 9 8 4 -3 5 2 2 10 -3 9 -10 14 -14 11 -5 -3 -12 0 -16 6
-4 7 -3 9 4 5 16 -10 26 14 12 27 -10 9 -11 9 -5 -2 6 -10 4 -12 -4 -6 -9 5
-9 11 -3 17 13 13 3 40 -11 31 -7 -4 -8 0 -4 12 5 11 1 23 -10 32 -17 14 -17
14 0 9 15 -5 16 -2 7 14 -6 11 -7 20 -3 20 4 0 -3 7 -16 16 -16 12 -20 19 -12
27 14 14 14 30 1 22 -6 -4 -10 6 -10 24 0 16 -6 32 -12 34 -10 4 -10 6 0 6 6
1 12 6 12 12 0 5 -4 7 -10 4 -5 -3 -10 1 -10 9 0 9 -6 16 -12 16 -9 0 -8 4 2
10 11 7 11 10 2 10 -7 0 -12 6 -11 13 3 26 -2 36 -15 31 -10 -4 -14 1 -12 19
2 19 -1 24 -12 19 -9 -3 -13 -1 -9 5 7 12 -20 27 -40 24 -7 -1 -13 4 -13 12 0
7 -11 13 -24 13 -14 0 -22 -4 -20 -8z m-84 -43 c3 0 10 -4 15 -9 5 -6 2 -6 -6
-1 -11 6 -13 4 -8 -8 3 -9 1 -19 -5 -23 -7 -4 -8 -3 -4 4 4 7 2 12 -4 12 -6 0
-8 5 -5 10 3 6 1 10 -4 10 -6 0 -11 5 -11 11 0 6 5 7 13 2 6 -4 15 -8 19 -8z
m5 -168 c2 -21 1 -21 -13 3 l-15 25 7 -25 c4 -14 11 -28 17 -31 5 -4 6 -12 3
-18 -4 -6 0 -14 8 -17 12 -5 13 -10 5 -26 -8 -15 -8 -19 0 -14 7 5 12 -2 13
-16 3 -48 4 -53 15 -51 6 1 9 -6 5 -19 -4 -16 -2 -19 9 -13 11 7 11 5 -1 -10
-14 -17 -13 -18 3 -12 15 6 17 3 12 -13 -4 -11 -2 -20 4 -20 6 0 11 -9 11 -21
0 -13 4 -18 13 -13 7 5 6 0 -3 -11 -14 -17 -13 -18 3 -12 15 6 16 4 7 -13 -9
-16 -8 -18 5 -14 13 5 14 2 6 -18 -7 -18 -6 -25 4 -25 7 0 11 7 8 16 -4 14 -3
14 5 1 7 -9 8 -18 1 -26 -7 -8 -6 -15 2 -20 8 -5 9 -3 4 6 -5 8 -4 11 3 6 6
-3 9 -18 6 -32 -3 -15 -1 -23 5 -20 11 7 25 -12 26 -34 0 -8 5 -14 11 -13 7 1
10 -6 7 -17 -4 -15 0 -20 13 -20 16 0 17 -2 4 -10 -12 -7 -12 -10 -1 -10 7 0
11 -6 8 -14 -4 -11 -1 -13 10 -9 13 5 14 3 3 -18 -12 -22 -12 -23 4 -10 14 12
16 12 10 -4 -5 -12 -4 -16 3 -12 6 4 14 0 17 -9 4 -10 2 -13 -6 -8 -7 4 -8 3
-4 -4 4 -7 15 -12 24 -13 14 0 13 -2 -3 -9 -11 -5 -14 -9 -7 -9 7 -1 10 -5 7
-11 -3 -5 0 -7 8 -4 8 3 18 0 23 -7 5 -8 3 -10 -7 -4 -8 5 -6 -1 4 -13 11 -11
16 -26 12 -31 -3 -6 1 -11 9 -11 16 0 22 -15 9 -23 -5 -2 -3 -2 4 -1 6 2 17
-5 25 -14 11 -13 11 -15 -2 -8 -9 4 -8 1 3 -7 9 -8 17 -21 17 -28 0 -8 9 -21
19 -29 11 -7 17 -18 14 -23 -3 -6 0 -15 8 -21 8 -6 20 -23 28 -38 8 -16 21
-28 30 -28 14 0 14 -2 1 -10 -13 -8 -12 -10 3 -10 10 0 15 -4 12 -10 -3 -5 2
-10 12 -10 15 0 16 -2 3 -10 -12 -8 -12 -10 5 -10 17 0 17 -2 5 -10 -12 -8
-10 -10 9 -10 21 0 22 -2 10 -17 -10 -11 -10 -14 -1 -9 6 4 12 2 12 -3 0 -6 8
-11 18 -11 14 0 15 -2 2 -10 -11 -7 -11 -10 -2 -10 7 0 10 -4 7 -10 -6 -9 8
-14 28 -11 5 1 6 -3 2 -9 -3 -5 -1 -10 4 -10 6 0 11 -9 11 -21 0 -11 5 -17 10
-14 6 3 10 1 10 -5 0 -17 26 -40 36 -32 5 4 3 0 -4 -9 -10 -13 -9 -19 2 -28 8
-6 18 -11 22 -10 21 3 26 -2 14 -16 -10 -12 -8 -14 9 -10 14 2 21 -1 21 -11 0
-9 -5 -12 -12 -8 -7 4 -8 3 -4 -4 4 -7 16 -12 26 -12 10 0 22 -9 25 -20 3 -11
11 -20 17 -20 6 0 3 -10 -8 -22 -18 -21 -18 -22 0 -8 16 13 20 12 31 -4 8 -10
19 -15 26 -10 8 4 10 3 5 -4 -4 -6 3 -21 14 -32 11 -11 18 -26 14 -32 -5 -8
-2 -9 10 -5 11 5 15 3 10 -5 -5 -7 -2 -9 8 -5 12 4 15 0 13 -19 -2 -20 0 -22
12 -12 8 6 13 7 11 2 -2 -5 1 -10 5 -11 11 -2 36 -35 37 -46 0 -5 -4 -5 -10
-2 -16 10 -11 -1 7 -16 11 -10 14 -10 9 -1 -4 6 -2 12 3 12 6 0 11 -5 11 -11
0 -5 4 -7 10 -4 6 4 7 -1 3 -12 -6 -16 -5 -16 10 -4 15 12 17 12 11 -3 -4 -10
0 -18 12 -23 9 -3 25 -14 34 -23 10 -10 22 -19 28 -21 6 -2 12 -13 14 -24 2
-14 -2 -20 -15 -19 -15 2 -16 -1 -5 -15 10 -13 9 -13 -8 1 -11 10 -26 18 -33
18 -8 0 -11 6 -7 16 3 8 2 12 -4 9 -6 -3 -10 -14 -11 -23 0 -12 -3 -10 -9 6
-8 19 -13 21 -30 12 -15 -8 -18 -8 -15 3 4 8 -2 13 -14 13 -11 0 -17 -4 -15
-8 3 -4 1 -8 -5 -8 -5 0 -12 9 -16 20 -5 16 -9 17 -20 7 -7 -6 -10 -16 -7 -22
3 -5 -1 -4 -10 2 -8 7 -17 10 -21 7 -3 -3 -10 4 -17 15 -10 20 -12 20 -38 4
-26 -17 -27 -17 -12 2 11 14 11 17 1 11 -8 -5 -17 -3 -22 5 -7 11 -9 11 -9 -2
0 -9 -7 -16 -15 -16 -12 0 -12 3 -2 15 10 13 9 14 -13 2 -17 -9 -25 -10 -28
-1 -2 6 -8 11 -14 11 -6 0 -7 -7 -4 -16 4 -10 2 -13 -7 -7 -6 4 -21 9 -31 10
-11 2 -29 11 -40 21 -20 16 -20 16 -7 0 12 -16 11 -18 -3 -18 -9 0 -16 6 -17
13 0 9 -2 9 -6 -1 -4 -10 -8 -9 -17 4 -12 16 -13 16 -19 0 -5 -11 -3 -15 5
-10 6 4 8 3 5 -3 -4 -6 -18 -8 -31 -6 -18 4 -23 10 -18 22 5 14 3 13 -12 -2
-17 -17 -19 -17 -37 -1 -11 10 -22 14 -26 11 -3 -4 -1 -7 5 -7 7 0 12 -8 12
-17 0 -15 -2 -16 -10 -3 -9 13 -11 13 -21 0 -9 -13 -10 -13 -6 2 6 18 -29 33
-40 16 -3 -6 -1 -8 5 -4 6 3 13 3 16 -2 3 -5 -20 -6 -51 -4 -43 3 -54 1 -48
-8 5 -9 4 -11 -4 -6 -6 4 -8 13 -4 19 4 7 0 6 -10 -2 -9 -7 -17 -10 -17 -6 0
4 -8 1 -17 -6 -11 -10 -14 -10 -9 -1 5 9 -4 12 -33 12 -25 0 -41 -5 -41 -12 0
-6 -7 -3 -16 8 -15 19 -16 19 -9 0 6 -20 6 -20 -16 0 -12 10 -19 14 -16 7 4
-6 3 -14 -3 -18 -5 -3 -10 -1 -10 6 0 8 -5 7 -17 -2 -15 -12 -16 -12 -10 3 4
12 2 15 -8 11 -8 -3 -12 -10 -8 -17 4 -6 -2 -4 -12 4 -11 9 -16 10 -11 3 4 -7
2 -13 -3 -13 -6 0 -11 4 -11 9 0 5 -11 8 -24 7 -13 0 -22 -4 -20 -7 2 -4 -3
-9 -11 -12 -9 -4 -12 -1 -9 7 3 7 -2 13 -10 13 -9 0 -12 -6 -8 -16 5 -14 3
-14 -11 -2 -12 9 -17 10 -17 2 0 -7 -5 -9 -10 -6 -6 4 -19 3 -28 -1 -24 -10
-52 -12 -52 -3 0 4 6 10 13 12 9 4 9 6 -1 6 -7 1 -15 -6 -18 -14 -6 -14 -8
-13 -20 2 -12 16 -13 16 -8 1 5 -14 0 -16 -30 -13 -20 2 -34 -1 -31 -5 8 -13
-21 -6 -41 10 -16 12 -17 12 -6 0 6 -8 12 -21 12 -29 -1 -13 -2 -13 -11 2 -8
13 -15 15 -28 8 -12 -7 -22 -6 -30 2 -10 9 -11 8 -6 -4 5 -13 -1 -16 -29 -14
-20 1 -36 -3 -36 -9 -1 -6 -7 0 -16 14 -13 22 -14 22 -9 3 3 -12 1 -24 -5 -28
-6 -4 -9 -1 -8 7 2 7 -5 13 -14 13 -10 0 -23 6 -30 14 -11 11 -9 12 9 7 12 -4
24 -2 29 5 4 7 3 9 -4 5 -6 -3 -13 -2 -16 2 -3 5 7 8 21 7 15 0 29 -7 31 -13
2 -8 13 -3 29 15 15 17 23 21 20 11 -5 -15 -4 -16 13 -6 10 7 16 17 14 23 -3
5 2 1 10 -9 15 -18 16 -18 16 -2 0 13 5 16 21 11 13 -4 19 -3 16 2 -4 5 0 10
8 10 8 0 11 -5 8 -11 -4 -6 4 -2 16 8 12 11 39 21 59 23 20 2 44 4 52 5 8 1
21 8 28 17 8 9 11 11 8 4 -4 -6 -2 -14 3 -17 5 -3 11 1 15 9 4 12 11 13 32 5
23 -9 25 -9 15 4 -10 12 -8 13 10 9 17 -5 20 -3 14 8 -6 11 -5 11 5 2 10 -9
16 -8 28 4 14 14 17 14 22 -3 7 -17 8 -17 14 4 4 12 12 22 17 22 6 0 7 -4 4
-10 -3 -5 1 -10 10 -10 10 0 15 6 12 13 -3 7 3 13 14 13 14 0 16 -3 6 -15 -10
-12 -9 -12 10 -1 12 8 19 19 15 25 -3 5 3 3 13 -5 10 -8 16 -10 12 -4 -4 7 0
15 9 18 8 3 12 2 9 -4 -3 -6 -2 -10 3 -10 6 0 12 7 16 15 3 8 10 15 16 15 6 0
8 -5 5 -11 -4 -6 2 -5 14 3 12 7 21 20 21 28 0 13 1 13 10 0 7 -12 10 -12 10
-1 0 7 6 11 14 8 10 -4 14 0 11 13 -2 11 1 23 7 26 7 4 8 2 4 -4 -4 -7 -2 -12
3 -12 6 0 11 5 11 11 0 5 4 8 9 4 6 -3 8 3 6 15 -2 11 1 23 7 26 7 4 8 2 4 -4
-12 -19 -1 -14 20 10 10 12 13 18 7 14 -7 -4 -13 -2 -13 3 0 6 5 11 11 11 5 0
7 5 3 12 -5 8 -1 9 12 5 18 -7 18 -7 0 8 -11 8 -17 16 -13 16 4 1 12 3 17 4 6
1 12 3 15 4 3 0 -2 12 -11 26 -15 24 -15 25 2 26 17 1 17 2 2 6 -10 2 -18 9
-18 14 0 19 -2 24 -13 38 -10 12 -9 13 3 6 12 -7 12 -5 -2 15 -9 14 -23 24
-31 24 -9 -1 -13 5 -10 16 3 10 -1 21 -8 25 -7 5 -10 4 -6 -1 3 -5 -3 -10 -13
-10 -15 0 -16 3 -8 14 9 10 6 12 -14 8 -17 -3 -25 0 -25 10 0 11 3 11 16 1 14
-11 14 -10 2 6 -10 13 -17 15 -27 6 -7 -6 -17 -8 -22 -6 -4 3 -8 -5 -8 -19 0
-13 4 -24 10 -24 6 0 5 -5 -2 -12 -7 -7 -12 -17 -12 -23 0 -5 5 -3 10 5 10 16
10 15 13 -43 1 -20 -1 -37 -4 -37 -4 0 -10 -7 -13 -16 -5 -14 -4 -15 8 -5 12
10 14 9 9 -8 -3 -12 -10 -18 -16 -14 -6 4 -8 0 -4 -10 4 -12 1 -17 -9 -17 -11
0 -14 -5 -10 -16 4 -12 2 -15 -9 -10 -9 3 -15 0 -15 -9 0 -18 -12 -19 -29 -2
-11 10 -13 10 -7 0 4 -7 2 -13 -4 -13 -7 0 -5 -7 4 -16 20 -19 20 -21 1 -21
-8 0 -12 3 -10 7 2 4 -2 7 -9 7 -8 0 -12 -6 -9 -14 3 -7 -2 -13 -12 -13 -9 0
-13 -5 -10 -10 3 -6 1 -10 -4 -10 -6 0 -11 5 -11 12 0 15 -15 0 -15 -15 0 -7
-9 -11 -19 -9 -10 2 -15 -1 -12 -6 9 -14 -30 -22 -45 -8 -9 8 -11 7 -6 -6 5
-13 1 -16 -20 -12 -19 4 -24 1 -20 -9 3 -7 -1 -14 -9 -14 -7 0 -10 5 -7 10 3
5 0 8 -8 5 -8 -3 -14 -10 -14 -15 0 -6 -4 -15 -9 -20 -5 -4 -6 -3 -2 4 3 6 2
14 -4 18 -5 3 -10 -1 -10 -9 0 -10 -6 -13 -15 -10 -9 4 -15 0 -15 -7 0 -11 -2
-11 -10 1 -8 13 -11 13 -22 1 -11 -11 -11 -13 1 -6 10 6 12 4 7 -4 -6 -9 -11
-9 -24 1 -12 10 -14 10 -8 0 4 -7 2 -12 -4 -12 -6 0 -8 -5 -5 -10 4 -6 1 -9
-7 -8 -7 2 -16 10 -20 18 -4 10 -7 7 -7 -10 -1 -20 -3 -22 -11 -10 -6 10 -10
11 -10 3 0 -7 -5 -13 -11 -13 -5 0 -7 5 -3 12 5 7 3 8 -5 4 -7 -5 -10 -13 -8
-20 3 -6 -7 -11 -25 -12 -17 -1 -34 -7 -39 -15 -7 -11 -9 -11 -9 -1 0 7 -5 10
-10 7 -6 -4 -8 -11 -5 -16 3 -5 -2 -6 -11 -2 -13 5 -15 3 -9 -7 5 -9 4 -11 -4
-6 -6 4 -18 3 -26 -4 -9 -7 -15 -8 -20 0 -4 7 -12 7 -24 0 -10 -5 -22 -6 -26
-2 -5 4 -5 1 -1 -6 4 -7 11 -10 15 -8 4 3 13 0 21 -6 12 -8 12 -9 -2 -4 -10 3
-18 1 -18 -5 0 -6 -7 -3 -16 5 -17 17 -28 21 -20 7 3 -5 -1 -11 -8 -14 -19 -8
-16 -44 5 -63 13 -12 19 -12 25 -3 4 7 3 10 -3 6 -6 -4 -16 0 -23 8 -8 10 -9
15 -2 15 6 0 9 7 6 15 -4 8 -1 15 4 15 6 0 9 -9 7 -20 -2 -11 0 -18 4 -15 5 2
14 -2 21 -10 7 -8 16 -12 21 -9 5 3 9 1 9 -5 0 -5 -8 -10 -17 -10 -10 -1 -46
-2 -80 -4 -33 -1 -56 -5 -50 -9 6 -4 8 -11 3 -15 -5 -4 -11 -2 -13 5 -3 6 -9
12 -15 12 -6 0 -8 -6 -5 -14 4 -10 -3 -12 -26 -10 -18 2 -38 6 -46 9 -9 3 -11
0 -7 -10 3 -8 2 -14 -2 -14 -21 3 -32 -2 -26 -13 5 -10 4 -10 -6 -1 -11 10
-16 9 -27 -5 -11 -14 -12 -14 -8 -1 4 9 0 16 -9 16 -8 0 -12 -6 -9 -14 3 -9 0
-11 -10 -7 -8 3 -18 1 -21 -4 -3 -6 -16 -8 -29 -5 -18 4 -20 3 -7 -7 13 -10
13 -11 -3 -6 -9 3 -17 0 -17 -6 0 -6 -3 -8 -6 -5 -4 4 -2 12 4 19 6 7 10 18
10 23 -1 6 8 15 18 20 27 14 63 52 57 59 -4 3 2 6 11 6 12 0 16 5 13 14 -4 10
0 14 13 11 13 -3 17 1 13 11 -3 8 0 14 6 14 6 0 11 6 11 13 0 7 10 17 22 22
14 6 22 17 20 28 -2 10 6 21 20 27 13 5 17 9 10 9 -10 1 -10 4 0 15 7 8 18 11
23 8 6 -3 4 2 -4 11 -12 15 -12 17 4 11 13 -5 16 -4 11 4 -4 7 -3 12 3 12 5 0
20 15 32 32 12 18 16 27 9 21 -8 -7 -19 -13 -24 -13 -6 0 1 8 15 18 15 10 25
25 23 35 -1 11 0 16 3 13 4 -3 14 1 24 10 14 13 16 21 8 35 -7 15 -6 17 5 13
17 -7 34 22 31 53 -1 14 3 19 12 16 7 -3 13 2 13 12 0 9 4 13 10 10 5 -3 7 0
4 8 -3 8 0 18 5 22 6 3 9 11 5 16 -3 5 0 8 7 7 8 -2 13 7 14 19 0 12 8 32 18
43 10 12 15 26 11 32 -4 7 -3 8 4 4 7 -4 12 -2 12 4 0 6 4 9 8 6 4 -3 7 8 6
24 -1 21 2 27 12 23 17 -6 18 8 2 26 -10 11 -10 13 0 7 6 -4 12 -2 12 4 0 6 5
8 12 4 7 -5 9 -2 5 9 -3 9 -1 17 5 19 6 2 11 15 12 28 1 16 7 24 16 22 10 -3
9 3 -5 20 -19 22 -19 22 -1 8 18 -14 19 -13 13 4 -7 17 -6 17 9 5 16 -13 16
-12 5 9 -10 19 -9 22 6 23 11 0 13 3 6 6 -7 2 -13 9 -13 15 0 6 6 8 14 5 10
-4 12 0 8 15 -3 14 -1 19 6 14 7 -4 12 -3 12 3 0 5 -6 12 -12 14 -8 3 -6 6 4
6 11 1 15 6 12 16 -4 8 -1 15 6 15 9 0 9 4 -1 17 -12 15 -12 16 4 10 13 -5 17
-3 15 5 -3 7 1 19 8 26 7 7 11 19 8 27 -4 8 -1 15 5 15 6 0 10 3 10 8 -4 25 2
42 14 36 7 -5 6 0 -3 11 -11 14 -11 17 -1 11 10 -7 12 -3 6 14 -5 15 -3 20 3
16 6 -3 13 -2 17 4 3 5 0 10 -7 11 -7 0 -4 4 7 9 11 5 14 9 8 9 -7 1 -13 5
-13 11 0 5 8 6 18 3 15 -6 15 -4 4 9 -11 14 -11 21 2 41 9 13 13 26 10 29 -3
4 2 17 10 30 9 14 14 27 11 30 -3 2 5 4 17 4 15 -1 22 5 23 21 1 13 -3 19 -11
16 -6 -2 -15 0 -19 6 -4 7 1 8 12 4 14 -5 16 -3 6 7 -9 10 -9 18 0 34 6 12 11
24 12 28 0 3 3 10 7 14 4 4 3 13 -4 21 -6 8 -7 13 -2 12 29 -5 37 2 18 16 -14
12 -15 14 -2 9 13 -4 15 -1 11 15 -3 12 -1 21 6 21 9 0 9 5 0 21 -8 15 -8 19
0 15 6 -4 12 -4 12 1 6 35 5 52 -2 48 -4 -3 -11 -1 -14 5 -4 6 -3 10 2 9 20
-4 24 2 12 18 -10 11 -10 14 -1 9 7 -4 12 -2 13 6 1 7 2 18 4 23 1 6 3 13 3
17 4 17 28 -4 29 -25z m-82 4 c3 -5 2 -12 -3 -15 -5 -3 -9 1 -9 9 0 17 3 19
12 6z m-25 -81 c0 -5 -5 -10 -11 -10 -5 0 -7 5 -4 10 3 6 8 10 11 10 2 0 4 -4
4 -10z m60 -10 c0 -5 -4 -10 -10 -10 -5 0 -10 5 -10 10 0 6 5 10 10 10 6 0 10
-4 10 -10z m-55 -270 c3 -5 1 -10 -4 -10 -6 0 -11 5 -11 10 0 6 2 10 4 10 3 0
8 -4 11 -10z m-438 -635 c0 -8 -4 -12 -9 -9 -5 3 -6 10 -3 15 9 13 12 11 12
-6z m-197 -629 c0 -2 -7 -7 -16 -10 -8 -3 -12 -2 -9 4 6 10 25 14 25 6z m300
-50 c0 -3 -4 -8 -10 -11 -5 -3 -10 -1 -10 4 0 6 5 11 10 11 6 0 10 -2 10 -4z
m1287 -28 c-3 -8 -6 -5 -6 6 -1 11 2 17 5 13 3 -3 4 -12 1 -19z m-1027 -96 c0
-5 -7 -9 -15 -9 -8 0 -12 4 -9 9 3 4 9 8 15 8 5 0 9 -4 9 -8z m-820 -92 c0 -5
-2 -10 -4 -10 -3 0 -8 5 -11 10 -3 6 -1 10 4 10 6 0 11 -4 11 -10z m-29 -17
c-10 -4 -10 -7 -1 -13 9 -5 8 -9 -3 -13 -13 -5 -16 5 -8 31 1 1 7 2 14 1 8 0
8 -2 -2 -6z m2254 -42 c3 -5 2 -12 -3 -15 -5 -3 -9 1 -9 9 0 17 3 19 12 6z"/>
<path d="M1158 1983 c7 -3 16 -2 19 1 4 3 -2 6 -13 5 -11 0 -14 -3 -6 -6z"/>
<path d="M1149 1963 c-1 -1 -2 -6 -3 -10 -1 -5 -7 -18 -14 -31 -11 -18 -10
-23 2 -28 15 -6 20 -64 6 -64 -4 0 -19 -9 -33 -20 -17 -14 -23 -26 -20 -40 8
-29 21 -25 18 5 -2 16 1 23 7 19 7 -4 8 -2 4 4 -4 7 -2 12 3 12 14 0 14 -17 1
-25 -6 -3 -8 -17 -6 -31 3 -14 1 -22 -5 -19 -5 4 -9 0 -9 -9 0 -8 5 -16 12
-18 7 -3 5 -7 -6 -11 -11 -5 -15 -3 -10 5 4 6 3 8 -3 5 -7 -4 -8 -20 -3 -42 5
-24 4 -33 -3 -28 -6 4 -8 -2 -5 -15 4 -14 2 -20 -5 -15 -6 4 -8 0 -4 -10 3
-10 2 -17 -2 -17 -5 0 -7 -8 -4 -19 3 -10 0 -22 -6 -25 -5 -4 -7 -14 -4 -23 4
-11 3 -14 -5 -9 -9 5 -9 0 -2 -19 7 -17 7 -24 0 -20 -6 3 -10 1 -10 -5 0 -6
-3 -9 -7 -7 -5 3 -7 -15 -6 -39 1 -32 -2 -43 -10 -38 -9 5 -9 4 0 -6 6 -7 9
-19 6 -26 -4 -12 -8 -12 -21 -2 -12 10 -12 8 2 -14 13 -20 14 -28 5 -34 -8 -5
-9 -3 -4 6 5 8 4 11 -2 7 -6 -4 -10 -24 -9 -46 2 -32 -1 -38 -13 -33 -13 5
-14 3 -5 -9 16 -20 14 -51 -2 -45 -8 3 -16 0 -20 -6 -5 -7 -2 -8 6 -3 10 6 12
4 7 -7 -3 -9 0 -21 6 -27 8 -8 6 -11 -9 -12 -10 0 -13 -3 -6 -6 6 -2 12 -9 12
-14 0 -6 -4 -8 -8 -5 -4 2 -8 -6 -8 -19 0 -13 4 -21 8 -19 4 3 8 0 8 -5 0 -6
-5 -11 -11 -11 -6 0 -3 -7 5 -16 18 -17 21 -28 6 -19 -5 3 -10 2 -10 -3 0 -6
7 -13 16 -16 13 -5 14 -9 4 -22 -11 -12 -11 -17 0 -27 10 -10 11 -9 5 2 -6 10
-4 12 4 7 8 -5 9 -12 2 -19 -10 -13 21 -61 33 -50 3 4 6 -1 6 -10 0 -10 7 -17
15 -17 8 0 19 -9 25 -21 10 -17 14 -18 28 -7 13 11 15 11 10 -2 -4 -10 3 -20
19 -27 21 -10 23 -10 13 2 -9 11 -7 14 9 12 12 -1 21 -8 22 -17 0 -10 3 -9 9
5 5 12 9 14 9 6 1 -11 5 -10 16 5 15 19 15 19 9 -1 -7 -19 -6 -19 14 2 14 14
29 20 44 16 18 -4 20 -3 8 6 -13 10 -13 11 0 12 8 1 19 1 24 0 5 -1 6 7 3 18
-3 13 -1 18 8 15 7 -3 16 0 21 7 5 8 3 10 -6 4 -10 -6 -12 -4 -6 10 5 15 4 16
-9 5 -18 -15 -20 0 -2 20 10 12 9 12 -4 2 -9 -6 -20 -8 -24 -4 -5 4 -5 2 -2
-4 9 -16 -42 -11 -53 5 -4 8 -13 10 -19 7 -6 -4 -10 -2 -9 5 2 6 -3 14 -11 17
-9 3 -11 0 -6 -8 5 -9 4 -11 -4 -6 -9 6 -9 11 1 24 7 9 9 13 3 10 -5 -3 -19 4
-30 15 -11 11 -13 16 -5 12 13 -8 13 -6 1 8 -7 9 -18 14 -25 10 -6 -3 -8 -3
-4 2 4 4 3 17 -3 29 -10 20 -10 20 5 2 9 -11 16 -15 16 -9 0 5 -9 20 -20 33
-23 26 -26 38 -7 22 10 -8 13 -6 13 7 0 10 -5 18 -11 17 -15 -2 -18 18 -3 22
9 2 8 0 -2 -8 -12 -9 -10 -10 9 -5 19 6 23 4 18 -9 -4 -9 -2 -16 3 -16 5 0 8
-6 6 -12 -1 -7 -1 -9 2 -5 2 4 11 2 20 -5 14 -12 14 -10 2 12 -12 22 -12 24 2
12 13 -10 18 -9 29 5 12 14 12 16 0 8 -10 -6 -12 -4 -7 4 5 7 15 10 23 7 8 -3
12 -2 8 3 -8 14 25 43 41 37 8 -3 14 -1 14 5 0 6 4 8 9 5 5 -4 12 0 14 6 4 10
6 9 6 -1 1 -11 4 -11 18 0 9 8 14 9 10 3 -3 -6 0 -11 8 -11 8 0 12 4 9 8 -2 4
4 7 15 6 14 -1 17 -5 11 -12 -7 -8 0 -10 22 -7 24 4 29 2 23 -9 -7 -11 -4 -10
10 1 15 12 17 12 10 1 -6 -11 -3 -13 14 -8 14 3 24 0 28 -8 2 -8 13 -17 24
-20 10 -4 19 -13 19 -21 0 -8 5 -14 11 -14 5 0 7 4 4 10 -3 6 1 7 9 4 9 -3 13
-10 10 -15 -3 -5 -1 -9 5 -9 6 0 8 -8 4 -17 -5 -15 -3 -16 8 -5 13 12 38 18
26 6 -8 -8 10 -26 43 -42 16 -8 18 -11 5 -7 -18 4 -17 3 4 -15 12 -11 28 -17
34 -13 5 3 7 1 4 -4 -4 -6 0 -14 9 -17 8 -3 12 -10 9 -16 -3 -5 0 -7 9 -4 9 3
20 -3 28 -15 7 -12 18 -21 25 -21 7 0 13 -7 13 -16 0 -8 3 -13 8 -11 10 7 32
-19 24 -27 -3 -4 1 -4 11 0 12 4 17 1 17 -11 0 -11 5 -15 14 -12 11 4 13 1 9
-10 -4 -11 -2 -14 5 -9 7 4 12 2 12 -4 0 -6 5 -8 10 -5 6 3 10 -1 10 -10 0
-12 5 -15 22 -9 20 6 21 5 9 -10 -13 -16 -6 -21 21 -17 4 0 10 -10 14 -24 5
-21 17 -31 27 -22 6 5 35 -28 30 -35 -2 -4 3 -5 12 -2 11 5 14 2 8 -12 -4 -10
-2 -15 4 -11 13 8 55 -22 47 -35 -3 -5 8 -2 25 6 17 9 31 19 31 22 0 3 -4 3
-9 0 -5 -4 -17 -3 -26 0 -13 6 -14 9 -3 16 10 8 9 9 -4 5 -19 -6 -33 19 -15
26 7 3 -2 4 -19 2 -17 -2 -37 1 -45 7 -11 8 -11 9 3 5 16 -6 35 20 23 31 -3 3
-5 0 -5 -7 0 -9 -4 -8 -15 3 -8 8 -15 19 -15 25 0 5 -9 13 -20 16 -11 3 -20
13 -20 21 0 8 -7 14 -16 14 -8 0 -12 5 -9 10 3 6 -2 10 -11 10 -10 0 -15 3
-11 6 8 9 -25 44 -43 44 -13 0 -13 1 0 10 12 8 12 10 1 10 -16 0 -84 67 -94
93 -3 9 -13 17 -22 17 -8 0 -15 6 -15 14 0 8 -7 17 -16 20 -9 3 -14 12 -11 20
4 10 0 12 -14 9 -11 -3 -19 0 -19 6 0 7 5 9 12 5 7 -4 8 -3 4 5 -6 9 -11 9
-22 0 -12 -9 -13 -9 -9 3 3 8 -7 23 -25 37 -18 13 -29 29 -26 36 3 9 -2 12
-15 10 -17 -3 -18 -1 -9 10 8 10 8 15 -1 21 -8 4 -9 3 -5 -4 4 -7 1 -12 -8
-12 -17 0 -17 20 -1 33 6 4 -2 5 -17 3 -22 -4 -26 -1 -23 14 2 10 -3 21 -11
24 -10 4 -12 2 -8 -6 4 -7 3 -8 -4 -4 -7 4 -12 14 -12 22 0 8 -4 12 -10 9 -5
-3 -10 1 -10 11 0 14 -2 15 -17 3 -11 -10 -14 -10 -9 -1 4 7 2 12 -5 12 -6 0
-18 8 -26 18 -10 11 -12 12 -8 2 4 -8 -1 -6 -9 4 -12 15 -16 16 -17 5 0 -8 -4
-6 -9 6 -5 12 -9 14 -9 6 -1 -11 -5 -10 -16 5 -9 11 -13 13 -10 4 4 -11 -2
-15 -19 -15 -13 0 -22 3 -20 6 2 4 -5 9 -17 12 -17 5 -18 3 -8 -9 10 -13 8
-13 -16 -4 -23 9 -26 8 -21 -5 4 -11 2 -14 -7 -8 -19 12 -36 12 -44 1 -4 -7
-1 -8 8 -4 8 4 6 1 -3 -7 -10 -8 -15 -17 -11 -20 3 -4 -3 -5 -15 -2 -16 3 -19
-1 -15 -18 4 -18 3 -19 -6 -7 -9 12 -11 11 -11 -8 0 -13 -4 -21 -8 -18 -5 3
-9 -1 -10 -9 -1 -8 -3 -22 -4 -30 -1 -10 -9 -13 -26 -10 -13 2 -21 1 -17 -3 7
-7 12 -9 42 -11 20 -1 12 -11 -14 -16 -10 -1 -17 -8 -15 -14 1 -6 -3 -11 -9
-11 -6 0 -8 7 -5 17 4 9 1 20 -6 24 -9 6 -9 11 1 23 8 9 10 16 5 16 -5 0 -2 5
6 10 12 8 12 10 -5 10 -11 0 -15 4 -10 8 6 4 11 16 10 27 0 11 7 26 15 33 8 8
9 11 3 7 -7 -3 -13 -2 -13 2 0 5 6 15 13 22 10 12 8 13 -8 7 -20 -6 -20 -6 -1
9 13 10 15 15 6 15 -9 0 -8 5 6 16 10 8 14 13 7 10 -6 -4 -14 -2 -18 4 -3 5
-1 10 6 10 6 0 9 8 6 20 -3 11 0 20 6 20 7 0 5 5 -3 10 -8 5 -10 10 -3 10 6 0
9 9 5 22 -3 12 -1 19 4 15 5 -3 9 10 9 28 0 18 -3 31 -7 29 -3 -2 -4 5 -1 16
3 11 9 22 13 25 5 3 6 15 2 27 -4 15 -2 19 7 13 7 -4 5 5 -5 21 -16 24 -16 27
-2 16 14 -12 16 -10 11 9 -5 17 -3 20 8 15 8 -4 6 -1 -3 7 -23 18 -23 31 -1
23 10 -4 14 -4 10 0 -4 4 -2 13 3 20 8 9 3 18 -17 34 -28 22 -28 22 -3 15 23
-7 24 -7 10 10 -8 11 -10 16 -4 12 7 -4 15 0 18 9 5 12 1 14 -17 10 -12 -3
-17 -3 -10 0 7 3 9 13 6 22 -6 14 -4 15 8 5 13 -10 16 -10 16 2 0 8 -4 12 -9
9 -11 -7 -10 3 2 26 8 15 6 17 -13 13 -20 -4 -21 -3 -4 10 9 8 17 16 17 19 0
5 -29 7 -31 1z m13 -51 c-7 -2 -9 -9 -5 -15 3 -7 2 -8 -2 -4 -16 14 -14 36 3
29 10 -4 12 -7 4 -10z m18 -136 c0 -11 -19 -15 -25 -6 -3 5 1 10 9 10 9 0 16
-2 16 -4z m-36 -142 c3 -8 2 -12 -4 -9 -6 3 -10 10 -10 16 0 14 7 11 14 -7z
m-4 -485 c0 -5 -4 -9 -8 -9 -5 0 -9 7 -9 15 0 8 4 12 9 9 4 -3 8 -9 8 -15z
m-129 -246 c13 -16 12 -17 -3 -4 -10 7 -18 15 -18 17 0 8 8 3 21 -13z m999
-184 c0 -6 -4 -7 -10 -4 -5 3 -10 11 -10 16 0 6 5 7 10 4 6 -3 10 -11 10 -16z
m97 -69 c14 -11 22 -20 18 -20 -4 0 -18 9 -32 20 -14 11 -22 20 -18 20 4 0 18
-9 32 -20z"/>
<path d="M1065 1720 c-3 -6 1 -7 9 -4 18 7 21 14 7 14 -6 0 -13 -4 -16 -10z"/>
<path d="M1055 1620 c3 -5 8 -10 11 -10 2 0 4 5 4 10 0 6 -5 10 -11 10 -5 0
-7 -4 -4 -10z"/>
<path d="M1470 1141 c0 -10 29 -36 34 -30 1 2 -6 12 -16 22 -10 9 -18 13 -18
8z"/>
<path d="M770 1045 c-7 -9 -8 -15 -2 -15 5 0 12 7 16 15 3 8 4 15 2 15 -2 0
-9 -7 -16 -15z"/>
<path d="M958 973 c7 -3 16 -2 19 1 4 3 -2 6 -13 5 -11 0 -14 -3 -6 -6z"/>
<path d="M695 900 c-3 -5 -1 -10 4 -10 6 0 11 5 11 10 0 6 -2 10 -4 10 -3 0
-8 -4 -11 -10z"/>
<path d="M2159 608 c-5 -18 -6 -38 -1 -34 7 8 12 36 6 36 -2 0 -4 -1 -5 -2z"/>
<path d="M986 563 c-6 -14 -5 -15 5 -6 7 7 10 15 7 18 -3 3 -9 -2 -12 -12z"/>
<path d="M1486 562 c-3 -5 1 -9 9 -9 8 0 12 4 9 9 -3 4 -7 8 -9 8 -2 0 -6 -4
-9 -8z"/>
<path d="M619 546 c-5 -22 -3 -32 6 -38 6 -5 5 -8 -4 -8 -11 0 -11 -3 -1 -15
7 -8 8 -15 2 -15 -15 0 -35 27 -23 32 7 2 7 8 1 18 -8 13 -10 12 -10 -4 0 -16
-2 -17 -17 -5 -13 10 -13 8 2 -10 19 -22 19 -23 1 -20 -10 2 -21 -1 -23 -7 -2
-6 16 -10 46 -10 34 0 47 4 41 11 -5 6 -7 23 -6 38 2 15 -1 30 -5 33 -5 3 -10
3 -10 0z"/>
<path d="M806 502 c-3 -5 1 -9 9 -9 8 0 12 4 9 9 -3 4 -7 8 -9 8 -2 0 -6 -4
-9 -8z"/>
<path d="M507 471 c-4 -17 -3 -21 5 -13 5 5 8 16 6 23 -3 8 -7 3 -11 -10z"/>
<path d="M526 455 c-9 -26 -7 -32 5 -12 6 10 9 21 6 23 -2 3 -7 -2 -11 -11z"/>
<path d="M330 401 c0 -6 4 -13 10 -16 6 -3 7 1 4 9 -7 18 -14 21 -14 7z"/>
<path d="M1165 2400 c3 -5 8 -10 11 -10 2 0 4 5 4 10 0 6 -5 10 -11 10 -5 0
-7 -4 -4 -10z"/>
<path d="M1005 1849 c-4 -6 -5 -12 -2 -15 2 -3 7 2 10 11 7 17 1 20 -8 4z"/>
<path d="M80 525 c-7 -9 -8 -15 -2 -15 5 0 12 7 16 15 3 8 4 15 2 15 -2 0 -9
-7 -16 -15z"/>
<path d="M2475 461 c-3 -5 -2 -12 3 -15 5 -3 9 1 9 9 0 17 -3 19 -12 6z"/>
<path d="M2377 445 c3 -8 9 -12 14 -9 12 7 11 11 -5 17 -10 4 -13 1 -9 -8z"/>
<path d="M2420 426 c0 -2 8 -10 18 -17 15 -13 16 -12 3 4 -13 16 -21 21 -21
13z"/>
<path d="M1815 321 c-3 -5 -2 -12 3 -15 5 -3 9 1 9 9 0 17 -3 19 -12 6z"/>
</g>
</svg>
